<svg xmlns="http://www.w3.org/2000/svg" version="1.1" xmlns:xlink="http://www.w3.org/1999/xlink" xmlns:svgjs="http://svgjs.dev/svgjs" width="1500" height="1500" viewBox="0 0 1500 1500"><rect width="1500" height="1500" fill="#ffffff"></rect><g transform="matrix(0.6666666666666666,0,0,0.6666666666666666,249.39393939393938,438.58569500674764)"><svg viewBox="0 0 396 247" data-background-color="#ffffff" preserveAspectRatio="xMidYMid meet" height="935" width="1500" xmlns="http://www.w3.org/2000/svg" xmlns:xlink="http://www.w3.org/1999/xlink"><g id="tight-bounds" transform="matrix(1,0,0,1,0.2400000000000091,-0.09999999999999432)"><svg viewBox="0 0 395.52 247.2" height="247.2" width="395.52"><g><svg></svg></g><g><svg viewBox="0 0 395.52 247.2" height="247.2" width="395.52"><g transform="matrix(1,0,0,1,75.54432,67.37685797385141)"><svg viewBox="0 0 244.43135999999998 112.44628405229716" height="112.44628405229716" width="244.43135999999998"><g><svg viewBox="0 0 245.65351679999995 113.00851547255863" height="112.44628405229716" width="244.43135999999998"><g><rect width="245.65351679999995" height="3.2326903230180264" x="0" y="58.00264768657467" fill="#27d027" opacity="1" stroke-width="0" stroke="transparent" fill-opacity="1" class="rect-yte-0" data-fill-palette-color="primary" rx="1%" id="yte-0" data-palette-color="#27d027"></rect></g><g><rect width="245.65351679999995" height="3.2326903230180264" x="0" y="65.46660806589901" fill="#27d027" opacity="1" stroke-width="0" stroke="transparent" fill-opacity="1" class="rect-yte-1" data-fill-palette-color="primary" rx="1%" id="yte-1" data-palette-color="#27d027"></rect></g><g transform="matrix(1,0,0,1,0.6110783999999825,77.16183850152967)"><svg viewBox="0 0 244.43135999999998 35.84667697102896" height="35.84667697102896" width="244.43135999999998"><g id="textblocktransform"><svg viewBox="0 0 244.43135999999998 35.84667697102896" height="35.84667697102896" width="244.43135999999998" id="textblock"><g><svg viewBox="0 0 244.43135999999998 35.84667697102896" height="35.84667697102896" width="244.43135999999998"><g transform="matrix(1,0,0,1,0,0)"><svg width="244.43135999999998" viewBox="2.35 -35.9 250.23000000000002 36.699999999999996" height="35.84667697102896" data-palette-color="#27d027"><path d="M19.25 0.8L19.25 0.8Q11.8 0.8 7.08-3.48 2.35-7.75 2.35-15.4 2.35-23.05 7.05-28.18 11.75-33.3 19.65-33.3L19.65-33.3Q22.75-33.3 24.95-32.9 27.15-32.5 28.95-32.13 30.75-31.75 31-31.7L31-31.7Q30.5-26.25 29.65-23.15L29.65-23.15 27.95-22.85Q27.3-28.15 26.25-29.7L26.25-29.7Q23.85-31 18.68-31 13.5-31 10.45-27.05 7.4-23.1 7.4-16.75 7.4-10.4 10.83-5.95 14.25-1.5 19.75-1.5L19.75-1.5Q23.7-1.5 25.78-3.33 27.85-5.15 29.05-9.3L29.05-9.3 30.75-9.05Q30.7-5.3 29.7-0.85L29.7-0.85Q24.85 0.8 19.25 0.8ZM45.35 0.8Q40.5 0.8 37.8-2.1 35.1-5 35.1-10.03 35.1-15.05 37.97-18.32 40.85-21.6 45.67-21.6 50.5-21.6 53.25-18.68 56-15.75 56-10.78 56-5.8 53.1-2.5 50.2 0.8 45.35 0.8ZM39.55-10.95L39.55-10.95Q39.55-6.25 41.3-3.75 43.05-1.25 46.2-1.25L46.2-1.25Q51.5-1.25 51.5-9.85L51.5-9.85Q51.5-14.5 49.72-17.03 47.95-19.55 44.8-19.55L44.8-19.55Q39.55-19.55 39.55-10.95ZM67.45-16.05L67.45-3.2Q67.45-2.55 67.57-2.33 67.7-2.1 68.2-1.85L68.2-1.85Q69.15-1.35 70.9-1.05L70.9-1.05 70.55 0.4Q66.45 0 65.37 0 64.3 0 60.2 0.4L60.2 0.4 59.8-1.1Q61.75-1.4 62.47-1.78 63.2-2.15 63.32-2.4 63.45-2.65 63.45-3.3L63.45-3.3 63.45-16.8Q63.45-18.3 62.6-18.45L62.6-18.45Q61.75-18.55 60.4-18.3L60.4-18.3 59.85-18.2 59.6-19.7Q63.15-21.25 66.09-21.6L66.09-21.6 66.9-20.7Q66.9-19.4 67.4-17.9L67.4-17.9 69.3-19.35Q72.15-21.6 75.3-21.6 78.45-21.6 80.12-19.85 81.8-18.1 81.8-14.05L81.8-14.05 81.8-3.3Q81.8-2.65 81.92-2.4 82.05-2.15 82.5-1.9L82.5-1.9Q83.2-1.55 84.95-1.2L84.95-1.2 85.45-1.1 85.09 0.4Q81 0 79.92 0 78.84 0 74.75 0.4L74.75 0.4 74.4-1.05Q76.09-1.35 76.82-1.73 77.55-2.1 77.67-2.35 77.8-2.6 77.8-3.2L77.8-3.2 77.8-13.05Q77.8-15.95 76.77-17.25 75.75-18.55 73.2-18.55 70.65-18.55 67.45-16.05L67.45-16.05ZM94.69-18.5L94.69-6.2Q94.69-3.85 95.54-3.05 96.39-2.25 98.12-2.25 99.84-2.25 102.19-3.8L102.19-3.8 102.94-2.65Q98.74 0.8 95.99 0.8L95.99 0.8Q90.69 0.8 90.69-5.45L90.69-5.45 90.69-18.6 87.79-18.6 87.54-19.9 90.69-20.8 90.69-24.15 94.69-26 94.69-20.5 101.09-20.95 100.69-18.3 94.69-18.5ZM116.99-2.35L116.99-2.35Q119.99-2.35 122.99-4.5L122.99-4.5 123.79-3.4Q119.24 0.8 115.02 0.8 110.79 0.8 108.07-2.13 105.34-5.05 105.34-9.9 105.34-14.75 108.09-18.18 110.84-21.6 115.22-21.6 119.59-21.6 121.74-18.88 123.89-16.15 123.89-11.5L123.89-11.5 109.79-10.5Q110.19-2.35 116.99-2.35ZM114.94-19.55L114.94-19.55Q112.29-19.55 111.04-17.43 109.79-15.3 109.79-12.3L109.79-12.3 119.39-13.5Q119.39-19.55 114.94-19.55ZM134.69-1.1L134.69-1.1Q138.74-1.1 138.74-4.6L138.74-4.6Q138.74-6.15 137.59-7.1 136.44-8.05 134.34-9.05 132.24-10.05 131.49-10.48 130.74-10.9 129.94-11.6L129.94-11.6Q128.29-13.05 128.29-15.7 128.29-18.35 130.31-19.98 132.34-21.6 135.74-21.6L135.74-21.6Q137.34-21.6 141.79-20.45L141.79-20.45Q141.49-17.4 140.94-15.45L140.94-15.45 139.94-15.25Q138.74-19.8 135.39-19.8L135.39-19.8Q133.64-19.8 132.76-18.95 131.89-18.1 131.89-16.78 131.89-15.45 132.79-14.68 133.69-13.9 134.94-13.3 136.19-12.7 137.09-12.25L137.09-12.25 138.19-11.7Q139.69-10.95 140.01-10.63 140.34-10.3 140.89-9.88 141.44-9.45 141.61-9.08 141.79-8.7 142.09-8.2L142.09-8.2Q142.59-7.3 142.59-5.9L142.59-5.9Q142.59-2.6 140.29-0.9 137.99 0.8 134.41 0.8 130.84 0.8 128.14-0.55L128.14-0.55Q128.04-1.25 128.04-3.28 128.04-5.3 128.14-6L128.14-6 129.59-6.3Q129.99-4 131.34-2.55 132.69-1.1 134.69-1.1ZM153.04-18.5L153.04-6.2Q153.04-3.85 153.89-3.05 154.74-2.25 156.46-2.25 158.19-2.25 160.54-3.8L160.54-3.8 161.29-2.65Q157.09 0.8 154.34 0.8L154.34 0.8Q149.04 0.8 149.04-5.45L149.04-5.45 149.04-18.6 146.14-18.6 145.89-19.9 149.04-20.8 149.04-24.15 153.04-26 153.04-20.5 159.44-20.95 159.04-18.3 153.04-18.5ZM172.28-18.2L190.63-18.2 190.63-29Q190.63-29.7 190.51-30 190.38-30.3 189.88-30.5L189.88-30.5Q188.98-30.95 187.08-31.2L187.08-31.2 186.43-31.25 186.78-32.9Q190.48-32.5 192.63-32.5 194.78-32.5 198.48-32.9L198.48-32.9 198.83-31.25Q195.53-30.85 195.18-30.1L195.18-30.1Q195.08-29.8 195.08-29.1L195.08-29.1 195.08-3.4Q195.08-2.7 195.21-2.43 195.33-2.15 195.78-1.9L195.78-1.9Q196.53-1.6 198.28-1.3L198.28-1.3 198.83-1.25 198.48 0.4Q194.78 0 192.63 0 190.48 0 186.78 0.4L186.78 0.4 186.43-1.25Q190.18-1.7 190.48-2.5L190.48-2.5Q190.63-2.8 190.63-3.5L190.63-3.5 190.63-15.55 172.28-15.55 172.28-3.5Q172.28-2.8 172.41-2.5 172.53-2.2 172.98-2L172.98-2Q173.93-1.55 175.83-1.3L175.83-1.3 176.48-1.25 176.13 0.4Q172.43 0 170.28 0 168.13 0 164.43 0.4L164.43 0.4 164.08-1.25Q167.38-1.65 167.68-2.4L167.68-2.4Q167.83-2.7 167.83-3.4L167.83-3.4 167.83-29.1Q167.83-29.8 167.71-30.08 167.58-30.35 167.08-30.6L167.08-30.6Q166.38-30.9 164.58-31.2L164.58-31.2 164.08-31.25 164.43-32.9Q168.13-32.5 170.28-32.5 172.43-32.5 176.13-32.9L176.13-32.9 176.48-31.25Q174.03-30.95 173.16-30.58 172.28-30.2 172.28-29.1L172.28-29.1 172.28-18.2ZM223.98-15.8L223.98-4.25Q223.98-2.95 224.73-2.63 225.48-2.3 226.33-2.3 227.18-2.3 227.93-2.4L227.93-2.4 228.28-0.9Q224.83-0.2 222.43 0.8L222.43 0.8Q220.08-0.9 220.08-2.85L220.08-2.85 218.28-1.5Q215.33 0.8 212.33 0.8L212.33 0.8Q205.98 0.8 205.98-6.75L205.98-6.75 205.98-16.9Q205.98-18.5 205.13-18.65L205.13-18.65Q204.38-18.75 203.13-18.5L203.13-18.5 202.63-18.4 202.38-19.9Q205.33-21.15 209.63-21.6L209.63-21.6 210.33-20.7Q209.98-19.2 209.98-15.8L209.98-15.8 209.98-7.75Q209.98-4.9 211.06-3.58 212.13-2.25 214.48-2.25 216.83-2.25 219.93-4.6L219.93-4.6 219.93-16.9Q219.93-18.5 219.13-18.65L219.13-18.65Q218.23-18.75 216.83-18.5L216.83-18.5 216.28-18.4 215.98-19.9Q219.28-21.35 223.58-21.6L223.58-21.6 224.33-20.7Q223.98-19.2 223.98-15.8L223.98-15.8ZM236.98-30.1L236.98-18.75Q241.23-21.6 244.23-21.6L244.23-21.6Q248.38-21.6 250.48-18.8 252.58-16 252.58-11 252.58-6 249.55-2.6 246.53 0.8 242.25 0.8 237.98 0.8 232.98-1.25L232.98-1.25 232.98-31.1Q232.98-32 232.73-32.4 232.48-32.8 231.73-32.8L231.73-32.8 229.63-32.5 229.33-34Q232.93-35.6 236.63-35.9L236.63-35.9 237.38-35Q236.98-33.5 236.98-30.1L236.98-30.1ZM242.18-18.65L242.18-18.65Q240.88-18.65 239.58-18.18 238.28-17.7 237.63-17.25L237.63-17.25 236.98-16.8 236.98-5.35Q236.98-3.5 238.4-2.38 239.83-1.25 242.28-1.25 244.73-1.25 246.43-3.45 248.13-5.65 248.13-10.05L248.13-10.05Q248.13-18.65 242.18-18.65Z" opacity="1" transform="matrix(1,0,0,1,0,0)" fill="#27d027" class="wordmark-text-0" data-fill-palette-color="primary" id="text-0"></path></svg></g></svg></g></svg></g></svg></g><g transform="matrix(1,0,0,1,98.96603947893581,0)"><svg viewBox="0 0 47.72143784212831 49.54010757396203" height="49.54010757396203" width="47.72143784212831"><g><svg xmlns="http://www.w3.org/2000/svg" data-name="Layer 1" viewBox="2.8999743346781823 1.11 94.20002569866249 97.79" x="0" y="0" height="49.54010757396203" width="47.72143784212831" class="icon-icon-0" data-fill-palette-color="accent" id="icon-0"><path d="M66.72 29.17H68.35A12.56 12.56 0 0 0 80.91 16.61V9A2 2 0 0 0 78.91 7H68.35V3.11A2 2 0 0 0 66.35 1.11H33.65A2 2 0 0 0 31.65 3.11V7H21.1A2 2 0 0 0 19.1 9V16.63A12.55 12.55 0 0 0 31.65 29.17H33.28A18.38 18.38 0 0 0 46.13 39.55V45.61H41.63A2.51 2.51 0 0 0 39.12 48.12V51.42H36.87A1.6 1.6 0 0 0 35.27 53.02V61.6A1.6 1.6 0 0 0 36.87 63.2H63.13A1.6 1.6 0 0 0 64.73 61.6V53A1.6 1.6 0 0 0 63.13 51.4H60.89V48.1A2.51 2.51 0 0 0 58.38 45.59H53.88V39.55A18.38 18.38 0 0 0 66.72 29.17M68.35 21.61V13.33H74.55V16.61A6.21 6.21 0 0 1 68.35 22.81C68.34 22.41 68.35 22 68.35 21.61M31.64 22.81A6.21 6.21 0 0 1 25.44 16.61V13.33H31.64zM87.59 35.3A5 5 0 1 1 82.59 30.3 5 5 0 0 1 87.59 35.3M73.59 46.39A4.26 4.26 0 0 1 77.82 41.65H79.38A0.21 0.21 0 0 1 79.54 41.73L82.11 45A0.52 0.52 0 0 0 82.92 45L85.53 41.74A0.21 0.21 0 0 1 85.69 41.66H87.33A4.26 4.26 0 0 1 91.56 46.4L90.32 55.71A3.61 3.61 0 0 1 87.89 58.71L85.81 77.81A1.65 1.65 0 0 1 84.17 79.28H80.87A1.65 1.65 0 0 1 79.23 77.81L77.14 58.7A3.62 3.62 0 0 1 74.79 55.7ZM12.41 35.3A5 5 0 1 1 17.41 40.3 5 5 0 0 1 12.41 35.3M12.67 41.66H14.23A0.21 0.21 0 0 1 14.39 41.74L17 45A0.52 0.52 0 0 0 17.81 45L20.42 41.74A0.21 0.21 0 0 1 20.58 41.66H22.22A4.26 4.26 0 0 1 26.45 46.4L25.21 55.71A3.61 3.61 0 0 1 22.78 58.71L20.7 77.82A1.65 1.65 0 0 1 19.06 79.29H15.76A1.65 1.65 0 0 1 14.12 77.82L12 58.7A3.62 3.62 0 0 1 9.65 55.7L8.44 46.4A4.26 4.26 0 0 1 12.67 41.66M97.1 85.83V96.76A2.14 2.14 0 0 1 95 98.9H5A2.14 2.14 0 0 1 2.9 96.76V85.83A2.14 2.14 0 0 1 5 83.68H33.17A1 1 0 0 0 34.17 82.68V70.95A1.78 1.78 0 0 1 35.95 69.17H64.11A1.78 1.78 0 0 1 65.89 70.95V82.73A1 1 0 0 0 66.89 83.73H95A2.14 2.14 0 0 1 97.1 85.83" fill="#37cb2b" data-fill-palette-color="accent"></path></svg></g></svg></g><g></g></svg></g></svg></g><g><path d="M94.04 58.956A122.216 122.216 0 0 1 301.48 58.956L298.264 58.956A118.999 118.999 0 0 0 97.256 58.956L94.04 58.956M94.04 188.244A122.216 122.216 0 0 0 301.48 188.244L298.264 188.244A118.999 118.999 0 0 1 97.256 188.244L94.04 188.244" fill="#2dd622" stroke="transparent" data-fill-palette-color="tertiary"></path></g></svg></g><defs></defs></svg><rect width="395.52" height="247.2" fill="none" stroke="none" visibility="hidden"></rect></g></svg></g></svg>